<?xml version="1.0" encoding="UTF-8"?>
<svg version="1.1" xmlns="http://www.w3.org/2000/svg" width="500" height="500">
<path d="M0 0 C165 0 330 0 500 0 C500 165 500 330 500 500 C335 500 170 500 0 500 C0 335 0 170 0 0 Z " fill="#050334" transform="translate(0,0)"/>
<path d="M0 0 C1.28693753 0.91526795 2.55918083 1.85171143 3.8125 2.8125 C6.69117277 5.27670105 6.69117277 5.27670105 9.421875 4.8203125 C12.20942103 3.93336604 14.07977679 2.7814105 16.4375 1.0625 C24.37833302 -4.7191083 32.45821554 -4.76453424 42 -4 C51.14938221 -2.12996166 58.48245852 3.93315936 63.73828125 11.50390625 C68.50752259 20.5184441 68.51042927 31.00289613 65.6875 40.6875 C59.6514824 54.23658731 44.64434719 65.60529065 34.35498047 75.94018555 C32.51980428 77.78701417 30.68913781 79.638334 28.86279297 81.49389648 C26.2020158 84.19708497 23.52846911 86.88701356 20.8515625 89.57421875 C20.03692535 90.40636398 19.22228821 91.23850922 18.38296509 92.09587097 C17.61801727 92.85789322 16.85306946 93.61991547 16.06494141 94.4050293 C15.39862701 95.07720993 14.73231262 95.74939056 14.04580688 96.44194031 C11.60642854 98.29973886 10.0632579 98.87982971 7 99 C5.09831238 97.89709473 5.09831238 97.89709473 3.28588867 96.15039062 C2.59683441 95.49852783 1.90778015 94.84666504 1.19784546 94.17504883 C0.47255646 93.45728271 -0.25273254 92.7395166 -1 92 C-1.74341644 91.28287842 -2.48683289 90.56575684 -3.2527771 89.8269043 C-5.71329828 87.4353505 -8.14633431 85.01841743 -10.57421875 82.59375 C-11.90450859 81.26845276 -11.90450859 81.26845276 -13.26167297 79.91638184 C-15.12440613 78.05868406 -16.98581083 76.19965336 -18.84594727 74.33935547 C-20.74225213 72.44296898 -22.64204153 70.55018688 -24.54516602 68.66064453 C-27.30993609 65.91422839 -30.06789749 63.1611425 -32.82421875 60.40625 C-33.67014084 59.56751343 -34.51606293 58.72877686 -35.38761902 57.86462402 C-43.98271629 49.23624937 -50.06392822 41.64061988 -50.375 29.0625 C-50.12493697 19.29962246 -47.71950084 12.18971422 -41 5 C-29.61099444 -5.42223698 -13.75312155 -7.86608409 0 0 Z " fill="#070535" transform="translate(249,128)"/>
<path d="M0 0 C1.02963867 -0.02416992 1.02963867 -0.02416992 2.08007812 -0.04882812 C9.98127907 -0.05630324 15.64981515 3.09968592 21.390625 8.33984375 C26.60908199 14.06880197 28.55760914 20.942217 28.46875 28.55078125 C27.71685804 35.9339426 24.37143334 42.12856666 19.1875 47.3125 C11.43954185 53.24710624 3.73918756 54.38004155 -5.8125 53.3125 C-13.98734453 50.87816264 -19.59287114 45.71687701 -23.90625 38.4765625 C-26.98148274 31.72813511 -27.02871205 23.54280279 -25.00390625 16.5 C-22.1367549 9.99186407 -17.76697973 6.06201139 -11.8125 2.3125 C-11.22210938 1.92707031 -10.63171875 1.54164063 -10.0234375 1.14453125 C-6.72733981 -0.095873 -3.47289211 -0.01603367 0 0 Z " fill="#FBFBFC" transform="translate(256.8125,142.6875)"/>
<path d="M0 0 C2.50794291 0.20421067 3.63651366 0.58495579 5.30639648 2.49169922 C5.67837158 3.13123535 6.05034668 3.77077148 6.43359375 4.4296875 C6.85624512 5.15381836 7.27889648 5.87794922 7.71435547 6.62402344 C9.46837892 9.86560267 11.11387423 13.15364588 12.7409668 16.46044922 C20.01406229 31.12488007 30.29094076 47.32364982 46 54 C45.65420523 51.15190851 45.15277049 50.13907178 42.99609375 48.17578125 C42.15175781 47.56089844 41.30742187 46.94601563 40.4375 46.3125 C35.28259364 42.3740032 31.12958276 37.98318367 27 33 C27.33 32.01 27.66 31.02 28 30 C31.72321628 28.13839186 35.03215441 28.1581733 39 29 C43.65866015 31.17535741 47.906052 34.12454906 52.21679688 36.90625 C55.31046462 38.80378991 58.60843903 40.23462985 61.94921875 41.63671875 C65.56128563 44.03788321 67.50003141 47.08205068 68.59448242 51.28051758 C69.06209147 53.86940114 69.42535102 56.45194023 69.75 59.0625 C69.87503906 59.94744141 70.00007813 60.83238281 70.12890625 61.74414062 C70.69214978 65.86943525 71.0608191 69.83066626 71 74 C66.18063472 74.24911232 61.3650862 74.42948743 56.54077148 74.54931641 C54.90403933 74.59930035 53.26774686 74.66732082 51.63256836 74.75439453 C38.09016878 75.45692975 38.09016878 75.45692975 33.02319336 71.92504883 C30.73788911 69.39883886 28.85069775 66.85537784 27 64 C26.15308594 62.98808594 25.30617187 61.97617188 24.43359375 60.93359375 C23.77488281 60.10988281 23.11617187 59.28617188 22.4375 58.4375 C19.01614673 54.19526162 15.45908683 50.13857591 11.7265625 46.16796875 C7.7260319 41.14467806 6.15219092 35.5309909 4.5625 29.4375 C2.7833605 22.78899358 0.86072345 16.23499384 -1.30078125 9.69921875 C-2.00860759 6.96677182 -2.28496894 4.80621957 -2 2 C-1.34 1.34 -0.68 0.68 0 0 Z " fill="#080637" transform="translate(174,191)"/>
<path d="M0 0 C2.625 0.375 2.625 0.375 5 1 C4.65319779 9.02734667 2.71698868 16.47657335 0.40893555 24.13232422 C-0.18707122 26.12356747 -0.75510923 28.12146933 -1.32226562 30.12109375 C-3.45829036 37.42080116 -5.80179309 43.36637293 -11 49 C-11.81082031 49.92425781 -12.62164062 50.84851563 -13.45703125 51.80078125 C-14.23433594 52.62964844 -15.01164062 53.45851562 -15.8125 54.3125 C-20.10212025 58.95850864 -24.13759865 63.75257327 -28.08984375 68.6875 C-28.72019531 69.450625 -29.35054688 70.21375 -30 71 C-30.56243408 71.80497925 -30.56243408 71.80497925 -31.13623047 72.6262207 C-34.07319674 74.79105031 -37.22700409 74.36746107 -40.73046875 74.29296875 C-41.48088943 74.28872391 -42.23131012 74.28447906 -43.00447083 74.28010559 C-45.39918026 74.2633245 -47.79304534 74.2256749 -50.1875 74.1875 C-51.8118368 74.17245235 -53.4361868 74.15876409 -55.06054688 74.14648438 C-59.04068948 74.11342305 -63.02020163 74.06164594 -67 74 C-67.23697713 50.99858983 -67.23697713 50.99858983 -62.375 44.5625 C-57.73670285 40.0614886 -51.6499664 37.52462678 -45.83984375 34.859375 C-43.22807292 33.65558255 -41.17542873 32.43702372 -38.76171875 30.7890625 C-34.74144183 28.18469641 -32.70128214 28.54503721 -28 29 C-25.5 30 -25.5 30 -24 31 C-26.84306829 39.79623339 -35.48525824 46.09908146 -43 51 C-42.34 51.99 -41.68 52.98 -41 54 C-22.97487511 39.62553332 -12.85362915 24.80550663 -3.078125 4.02441406 C-2 2 -2 2 0 0 Z " fill="#070536" transform="translate(338,191)"/>
<path d="M0 0 C3.625 0.375 3.625 0.375 6.0625 1.75 C8.57729588 5.97485708 8.34526095 9.5815392 7.625 14.375 C6.58481253 18.07533902 5.35415642 21.68124271 4.046875 25.29296875 C2.7754272 28.8307981 1.76601033 32.40279979 0.79150391 36.03198242 C-2.78807352 49.17687364 -9.75857251 57.13849291 -18.96679688 66.87841797 C-20.86211513 68.8926865 -22.72221457 70.93538226 -24.5625 73 C-25.09230469 73.59039062 -25.62210937 74.18078125 -26.16796875 74.7890625 C-31.30451339 81.53804996 -28.375 92.12191904 -28.375 99.375 C-44.545 99.375 -60.715 99.375 -77.375 99.375 C-77.375 92.775 -77.375 86.175 -77.375 79.375 C-76.055 79.375 -74.735 79.375 -73.375 79.375 C-73.32601563 78.59898437 -73.27703125 77.82296875 -73.2265625 77.0234375 C-71.41868233 50.90268601 -71.41868233 50.90268601 -63.6640625 43.94140625 C-60.51624517 41.35001643 -57.19240654 39.61840799 -53.5 37.875 C-49.51162703 35.98144595 -45.76184276 34.04980434 -42.1875 31.4375 C-37.55756045 28.41061479 -32.71379651 28.73304425 -27.375 29.375 C-23.6875 30.375 -23.6875 30.375 -21.375 31.375 C-16.75465639 24.06884689 -12.75054317 16.48690442 -8.80322266 8.80151367 C-8.38862793 8.00076416 -7.9740332 7.20001465 -7.546875 6.375 C-7.1765918 5.653125 -6.80630859 4.93125 -6.42480469 4.1875 C-4.55938907 0.96683825 -3.78855597 0.42095066 0 0 Z M-1.375 4.375 C-4.66725069 9.39079936 -7.50559718 14.5107685 -10.16625977 19.88574219 C-17.8657549 35.33828926 -28.01822856 49.63846218 -43.375 58.375 C-43.705 57.385 -44.035 56.395 -44.375 55.375 C-43.7459375 54.8903125 -43.116875 54.405625 -42.46875 53.90625 C-31.55762758 46.33042687 -31.55762758 46.33042687 -25.375 35.375 C-29.10780221 32.88646519 -33.04648197 32.77674954 -37.375 33.375 C-40.09535012 34.48022837 -42.44182151 35.99313346 -44.875 37.625 C-46.18464563 38.46336734 -47.4958293 39.29933725 -48.80859375 40.1328125 C-49.42589355 40.52887695 -50.04319336 40.92494141 -50.67919922 41.33300781 C-52.69481922 42.57151431 -54.76997851 43.55614671 -56.9375 44.5 C-61.27800209 46.86754659 -64.13718687 48.89937374 -66.375 53.375 C-68.33693203 61.67548168 -68.4721456 69.89850699 -68.375 78.375 C-63.73485799 78.67488489 -59.1004957 78.89074954 -54.45288086 79.03417969 C-52.87798766 79.0940163 -51.30374658 79.17553589 -49.73120117 79.28027344 C-39.69718854 80.08488391 -39.69718854 80.08488391 -30.98193359 75.85253906 C-28.11498485 72.93642714 -25.74429029 69.70523059 -23.375 66.375 C-21.81899559 64.43430627 -20.22160331 62.53279517 -18.625 60.625 C-17.97015625 59.80515625 -17.3153125 58.9853125 -16.640625 58.140625 C-14.375 55.375 -14.375 55.375 -12.72192383 53.77954102 C-6.72646883 47.74853825 -4.81896682 40.8400638 -2.5625 32.8125 C-2.1796723 31.51049633 -1.79491722 30.20905777 -1.40820312 28.90820312 C-0.3759115 25.40275047 0.63012448 21.8912237 1.625 18.375 C1.99197998 17.15176025 2.35895996 15.92852051 2.73706055 14.66821289 C3.61591619 11.40869027 3.78872915 8.73144753 3.625 5.375 C1.975 5.045 0.325 4.715 -1.375 4.375 Z " fill="#EDEDF1" transform="translate(339.375,186.625)"/>
<path d="M0 0 C4.19882081 2.78618726 6.08642125 5.50859919 8.19140625 10.04296875 C8.74376953 11.19861328 9.29613281 12.35425781 9.86523438 13.54492188 C10.72021181 15.37349345 11.57026895 17.2042718 12.41870117 19.03588867 C13.24787791 20.81459502 14.09440276 22.58518193 14.94140625 24.35546875 C15.43326416 25.41403076 15.92512207 26.47259277 16.43188477 27.56323242 C17.76705346 30.1006685 17.76705346 30.1006685 20.00366211 30.9777832 C22.32402861 31.19126008 22.32402861 31.19126008 25 29 C27.19921875 28.6640625 27.19921875 28.6640625 29.6875 28.625 C30.49574219 28.59664062 31.30398437 28.56828125 32.13671875 28.5390625 C36.2178438 29.19605125 39.38925644 31.05141016 43 33 C44.4401097 33.73042651 45.88152952 34.45827546 47.32421875 35.18359375 C48.77915994 35.93389975 50.2335855 36.68520644 51.6875 37.4375 C52.78674805 37.99147461 52.78674805 37.99147461 53.90820312 38.55664062 C60.22915143 41.84535764 64.60799742 45.6196385 68 52 C68.6159668 54.61547852 68.6159668 54.61547852 68.94921875 57.37890625 C69.07490234 58.38244141 69.20058594 59.38597656 69.33007812 60.41992188 C69.44802734 61.45697266 69.56597656 62.49402344 69.6875 63.5625 C69.81705078 64.60341797 69.94660156 65.64433594 70.08007812 66.71679688 C70.58315895 70.85590102 71 74.82437373 71 79 C72.32 79 73.64 79 75 79 C75 85.6 75 92.2 75 99 C58.83 99 42.66 99 26 99 C26 91.74 26 84.48 26 77 C22.3122936 72.1106814 19.93717626 68.96968808 15.48291016 65.26513672 C12.28464113 62.53655093 9.70985068 59.19785003 7 56 C6.2721228 55.17085083 6.2721228 55.17085083 5.52954102 54.32495117 C0.84812531 48.6233571 -1.12498189 42.63672486 -3.1875 35.625 C-3.51685547 34.5525 -3.84621094 33.48 -4.18554688 32.375 C-4.83275679 30.25966579 -5.4714083 28.14169119 -6.10083008 26.02099609 C-6.68400408 24.06167078 -7.27947752 22.10594813 -7.8894043 20.15478516 C-8.16051025 19.2838623 -8.43161621 18.41293945 -8.7109375 17.515625 C-8.94989746 16.75797852 -9.18885742 16.00033203 -9.43505859 15.21972656 C-10.38996142 11.46779205 -10.6922078 7.81880932 -10 4 C-7.34545768 -0.18600905 -4.80463883 -0.78443083 0 0 Z M-4 4 C-4.66 4.66 -5.32 5.32 -6 6 C-5.65203074 12.24952798 -3.99186231 17.92836053 -2.125 23.875 C-1.60677083 25.55989583 -1.08854167 27.24479167 -0.5703125 28.9296875 C-0.31096924 29.75992432 -0.05162598 30.59016113 0.21557617 31.44555664 C0.75281309 33.19504617 1.27300784 34.94983443 1.77856445 36.70874023 C2.03081787 37.58473877 2.28307129 38.4607373 2.54296875 39.36328125 C2.7649292 40.15001221 2.98688965 40.93674316 3.21557617 41.74731445 C6.371318 50.80988209 14.15139126 57.68854798 20.60058594 64.5078125 C28.36294136 72.78476929 28.36294136 72.78476929 30.09082031 76.08081055 C31.97354071 78.3660965 31.97354071 78.3660965 35.5534668 78.45410156 C37.01887008 78.45346954 38.48437006 78.43094239 39.94921875 78.390625 C41.10814384 78.38213531 41.10814384 78.38213531 42.29048157 78.37347412 C44.75678629 78.35109327 47.22163492 78.30089703 49.6875 78.25 C51.36000505 78.22993706 53.03253289 78.21168592 54.70507812 78.1953125 C58.80394596 78.15122331 62.90172617 78.08218675 67 78 C66.85230161 75.96729857 66.70205569 73.93478218 66.55078125 71.90234375 C66.4257019 70.20452759 66.4257019 70.20452759 66.2980957 68.47241211 C65.47548035 56.90533003 65.47548035 56.90533003 60 47 C57.012761 44.99895262 53.85873855 43.437645 50.625 41.875 C48.94898364 41.04214879 47.27446769 40.20627045 45.6015625 39.3671875 C44.80693604 38.97192871 44.01230957 38.57666992 43.19360352 38.16943359 C41.2398735 37.12787914 39.48777205 36.00623597 37.69140625 34.71875 C34.89130063 32.93058386 33.57543216 32.49972163 30.3125 32.625 C29.19294922 32.64433594 29.19294922 32.64433594 28.05078125 32.6640625 C25.69516111 32.90502085 25.69516111 32.90502085 23 35 C25.79229379 43.3621851 33.43988135 48.9599209 40.56640625 53.7109375 C41.03949219 54.13632813 41.51257813 54.56171875 42 55 C42 55.99 42 56.98 42 58 C24.24016942 49.12008471 14.16493394 32.37144482 5.97119141 15.08764648 C5.49601074 14.08548096 5.02083008 13.08331543 4.53125 12.05078125 C4.11423828 11.15012939 3.69722656 10.24947754 3.26757812 9.3215332 C2.03725349 7.06822871 1.02559266 5.56867018 -1 4 C-1.99 4 -2.98 4 -4 4 Z " fill="#EFEFF2" transform="translate(178,187)"/>
<path d="M0 0 C1.40278011 0.92860092 2.78587877 1.88683389 4.1640625 2.8515625 C4.60234375 2.46484375 5.040625 2.078125 5.4921875 1.6796875 C13.11418287 -4.57902415 21.94367804 -7.89219852 31.8671875 -7.40234375 C42.20414511 -6.25965286 51.24534347 -2.03102092 58.40625 5.59375 C66.05114718 15.41319571 67.14031123 25.83726944 66.1640625 37.8515625 C63.65134097 51.02334477 53.02386977 60.2980402 43.8984375 69.3828125 C42.93267226 70.34992943 41.96720369 71.31734269 41.00201416 72.28503418 C38.99838084 74.29158665 36.99124987 76.29455127 34.98144531 78.29492188 C32.41024519 80.8546361 29.8482558 83.42335384 27.28875351 85.99475861 C25.30550772 87.98523148 23.31752363 89.97091683 21.32807159 91.95518494 C19.92286547 93.35841882 18.52166747 94.76566279 17.12054443 96.17297363 C15.83836029 97.44570129 15.83836029 97.44570129 14.53027344 98.74414062 C13.40730865 99.86471863 13.40730865 99.86471863 12.26165771 101.00793457 C9.09454136 103.79159089 7.1544766 104.83251607 2.9140625 104.9140625 C-5.52113886 102.52408878 -12.03642851 93.82233862 -18.12109375 87.76953125 C-18.98101425 86.91531082 -19.84093475 86.06109039 -20.72691345 85.1809845 C-22.53425525 83.38303665 -24.34018803 81.58367142 -26.14477539 79.78295898 C-28.88693783 77.05052138 -31.63959472 74.32895103 -34.39257812 71.60742188 C-36.15690966 69.84962019 -37.92060286 68.09117753 -39.68359375 66.33203125 C-40.49731949 65.53065231 -41.31104523 64.72927338 -42.14942932 63.90361023 C-51.86240595 54.15299595 -59.43772064 44.37646562 -59.4609375 30.2265625 C-59.43454527 20.01804871 -56.48551112 12.16536093 -49.6484375 4.3515625 C-35.08725788 -9.4006627 -16.63696225 -10.40695086 0 0 Z M-48.8359375 9.8515625 C-54.98651246 18.6590684 -55.6622851 27.26250829 -54.8359375 37.8515625 C-51.96968541 49.33383745 -41.74472924 58.25905403 -33.703125 66.3203125 C-32.73847671 67.29140532 -31.77397139 68.26264017 -30.80960083 69.23400879 C-28.80447272 71.25100861 -26.79536077 73.26393925 -24.78369141 75.27441406 C-22.21017994 77.84772069 -19.65079951 80.43461637 -17.09457207 83.02507782 C-15.11453153 85.02734808 -13.12547487 87.02046967 -11.13376236 89.01112366 C-9.72683907 90.42153956 -8.32901426 91.84101263 -6.93136597 93.26062012 C-6.07342438 94.11240845 -5.21548279 94.96419678 -4.33154297 95.84179688 C-3.58210419 96.59408569 -2.83266541 97.34637451 -2.06051636 98.12145996 C0.46989624 100.08941594 1.96198878 100.75746421 5.1640625 100.8515625 C7.15742667 99.79874369 7.15742667 99.79874369 8.86450195 98.01342773 C9.55363678 97.3614743 10.24277161 96.70952087 10.95278931 96.03781128 C11.68250946 95.31634918 12.41222961 94.59488708 13.1640625 93.8515625 C13.920289 93.12389679 14.6765155 92.39623108 15.45565796 91.64651489 C17.97620318 89.2045388 20.46933817 86.73714294 22.95703125 84.26171875 C23.86608719 83.35836288 24.77514313 82.45500702 25.71174622 81.52427673 C27.62215359 79.62428703 29.53029401 77.72205091 31.43725586 75.81860352 C33.86450103 73.3968593 36.30090725 70.98455455 38.73954296 68.57428837 C41.08949752 66.24756299 43.42874467 63.91016671 45.76953125 61.57421875 C47.07122505 60.29104515 47.07122505 60.29104515 48.3992157 58.98194885 C57.1589013 50.18999423 62.33526558 42.44604275 62.6640625 29.6640625 C62.51386836 20.72309386 59.94559853 14.23814429 54.11328125 7.47265625 C46.8502565 0.46764303 39.70438819 -2.3252077 29.6640625 -2.6484375 C21.25906926 -2.40272701 15.00840435 -0.4390411 8.3515625 4.6640625 C5.1640625 6.8515625 5.1640625 6.8515625 2.7421875 6.671875 C-0.04535853 5.78492854 -1.91571429 4.632973 -4.2734375 2.9140625 C-18.80313628 -7.66480584 -37.54949236 -2.79281785 -48.8359375 9.8515625 Z " fill="#EDEDF0" transform="translate(253.8359375,126.1484375)"/>
<path d="M0 0 C4.69327902 2.65657303 7.56838922 5.64266766 9.3125 10.875 C10.00847414 18.14295848 10.11941278 24.14621888 5.89453125 30.2890625 C2.93295351 33.25795278 0.36800192 34.72836582 -3.80859375 35.30859375 C-8.74137305 35.31440386 -12.66414896 35.30588465 -17.25 33.375 C-21.9394794 28.56527754 -23.90664443 24.12489553 -24.1875 17.375 C-23.91867944 10.69156479 -21.96641421 6.04274767 -17.125 1.4375 C-11.59913517 -2.10472105 -6.05857699 -1.84837942 0 0 Z " fill="#F3F3F5" transform="translate(220.6875,309.125)"/>
<path d="M0 0 C9 0 9 0 11.10742188 1.82006836 C11.55666016 2.65159424 12.00589844 3.48312012 12.46875 4.33984375 C12.97664063 5.23767578 13.48453125 6.13550781 14.0078125 7.06054688 C14.74644531 8.48463867 14.74644531 8.48463867 15.5 9.9375 C16.02335937 10.88302734 16.54671875 11.82855469 17.0859375 12.80273438 C18.04915743 14.5432678 18.99796608 16.29190692 19.92773438 18.05053711 C20.85138788 19.94431691 20.85138788 19.94431691 22 21 C22.33 14.07 22.66 7.14 23 0 C25.31 0 27.62 0 30 0 C30 11.55 30 23.1 30 35 C22 35 22 35 19.80664062 32.98046875 C19.26201172 32.05878906 18.71738281 31.13710938 18.15625 30.1875 C17.55039063 29.19492187 16.94453125 28.20234375 16.3203125 27.1796875 C15.71960938 26.13039063 15.11890625 25.08109375 14.5 24 C13.55253906 22.42605469 13.55253906 22.42605469 12.5859375 20.8203125 C11.03117148 18.22903581 9.5120829 15.61641311 8 13 C7.67 20.26 7.34 27.52 7 35 C4.69 35 2.38 35 0 35 C0 23.45 0 11.9 0 0 Z " fill="#F4F4F6" transform="translate(101,309)"/>
<path d="M0 0 C4.516875 -0.1546875 4.516875 -0.1546875 9.125 -0.3125 C10.06230957 -0.35802002 10.99961914 -0.40354004 11.96533203 -0.45043945 C16.21213244 -0.52054106 19.15889355 -0.37915692 22.578125 2.30078125 C25 5 25 5 25.625 8.5 C24.91751617 12.46190947 23.86745069 14.2168861 21 17 C20.34 17 19.68 17 19 17 C19 17.66 19 18.32 19 19 C19.66 19 20.32 19 21 19 C23.45855991 24.26322777 25.56176509 29.36691325 27 35 C24.36 35 21.72 35 19 35 C18.72285156 34.14535156 18.44570313 33.29070312 18.16015625 32.41015625 C17.79792969 31.30542969 17.43570312 30.20070313 17.0625 29.0625 C16.52302734 27.40927734 16.52302734 27.40927734 15.97265625 25.72265625 C15.26143332 23.11876525 15.26143332 23.11876525 14 22 C11.67182036 21.63239269 9.3381615 21.29758419 7 21 C7 25.62 7 30.24 7 35 C4.69 35 2.38 35 0 35 C0 23.45 0 11.9 0 0 Z " fill="#F6F6F8" transform="translate(345,309)"/>
<path d="M0 0 C8 0 8 0 10.1015625 1.8359375 C10.60429687 2.67382812 11.10703125 3.51171875 11.625 4.375 C12.18574219 5.27734375 12.74648437 6.1796875 13.32421875 7.109375 C13.87722656 8.06328125 14.43023437 9.0171875 15 10 C15.87591797 11.43085938 15.87591797 11.43085938 16.76953125 12.890625 C18.20558584 15.24481285 19.60629163 17.62049791 21 20 C21.33 13.4 21.66 6.8 22 0 C24.31 0 26.62 0 29 0 C29 11.55 29 23.1 29 35 C21 35 21 35 18.8984375 33.01220703 C18.14433594 31.64878174 18.14433594 31.64878174 17.375 30.2578125 C16.81425781 29.27425781 16.25351563 28.29070312 15.67578125 27.27734375 C15.12277344 26.23707031 14.56976563 25.19679688 14 24.125 C13.41605469 23.09246094 12.83210937 22.05992187 12.23046875 20.99609375 C8 13.41691672 8 13.41691672 8 11 C7.34 11 6.68 11 6 11 C6 18.92 6 26.84 6 35 C4.02 35 2.04 35 0 35 C0 23.45 0 11.9 0 0 Z " fill="#F9F9FA" transform="translate(238,309)"/>
<path d="M0 0 C3.3 0 6.6 0 10 0 C12.34178439 6.33024139 14.67605176 12.66318766 17 19 C17.27134766 19.73976074 17.54269531 20.47952148 17.82226562 21.24169922 C18.53129127 23.1805271 19.23459912 25.12144326 19.9375 27.0625 C20.53884766 28.71958984 20.53884766 28.71958984 21.15234375 30.41015625 C22 33 22 33 22 35 C19.36 35 16.72 35 14 35 C13.34 32.36 12.68 29.72 12 27 C7.38 27 2.76 27 -2 27 C-2.66 29.64 -3.32 32.28 -4 35 C-6.31 35 -8.62 35 -11 35 C-9.48406093 27.21207125 -7.0210974 19.90859062 -4.375 12.4375 C-3.95476562 11.23802734 -3.53453125 10.03855469 -3.1015625 8.80273438 C-2.07225134 5.86685823 -1.03830116 2.93270619 0 0 Z " fill="#F5F5F7" transform="translate(318,309)"/>
<path d="M0 0 C7.92 0 15.84 0 24 0 C24 1.98 24 3.96 24 6 C18.72 6 13.44 6 8 6 C8 8.64 8 11.28 8 14 C12.62 14 17.24 14 22 14 C22 15.98 22 17.96 22 20 C17.38 20 12.76 20 8 20 C8 22.97 8 25.94 8 29 C13.28 29 18.56 29 24 29 C24 30.98 24 32.96 24 35 C16.08 35 8.16 35 0 35 C0 23.45 0 11.9 0 0 Z " fill="#EDEDF0" transform="translate(139,309)"/>
<path d="M0 0 C7.59 0 15.18 0 23 0 C23 1.98 23 3.96 23 6 C17.72 6 12.44 6 7 6 C7 8.64 7 11.28 7 14 C11.62 14 16.24 14 21 14 C21 15.98 21 17.96 21 20 C16.38 20 11.76 20 7 20 C7 22.97 7 25.94 7 29 C12.61 29 18.22 29 24 29 C24 30.98 24 32.96 24 35 C16.08 35 8.16 35 0 35 C0 23.45 0 11.9 0 0 Z " fill="#F6F5F7" transform="translate(378,309)"/>
<path d="M0 0 C2.97 0 5.94 0 9 0 C9 3.96 9 7.92 9 12 C12.96 12 16.92 12 21 12 C21 14.97 21 17.94 21 21 C17.04 21 13.08 21 9 21 C9 24.96 9 28.92 9 33 C6.03 33 3.06 33 0 33 C0 29.04 0 25.08 0 21 C-3.96 21 -7.92 21 -12 21 C-12 18.03 -12 15.06 -12 12 C-8.04 12 -4.08 12 0 12 C0 8.04 0 4.08 0 0 Z " fill="#191744" transform="translate(253,154)"/>
<path d="M0 0 C3.23939656 1.73539102 5.42321134 3.42321134 8 6 C7.625 8.125 7.625 8.125 7 10 C5.35 10.33 3.7 10.66 2 11 C1.34 10.01 0.68 9.02 0 8 C-2.32650465 7.48404995 -2.32650465 7.48404995 -4.9375 7.5625 C-5.81277344 7.54316406 -6.68804687 7.52382813 -7.58984375 7.50390625 C-10.09720771 7.80373581 -10.09720771 7.80373581 -11.79296875 9.65625 C-13.300104 12.58272621 -13.39984096 14.65435251 -13.375 17.9375 C-13.38273437 18.95714844 -13.39046875 19.97679687 -13.3984375 21.02734375 C-12.93568948 24.47980694 -12.26952371 26.34818978 -10 29 C-7.26622386 29.60393692 -7.26622386 29.60393692 -4.3125 29.3125 C-2.82169922 29.24482422 -2.82169922 29.24482422 -1.30078125 29.17578125 C-0.54152344 29.11777344 0.21773438 29.05976563 1 29 C1.66 27.35 2.32 25.7 3 24 C4.98 24.66 6.96 25.32 9 26 C7.47282845 30.58151466 5.40785989 33.79607006 1 36 C-4.79049444 36.48787315 -10.15669481 36.7761285 -15.5625 34.5 C-20.2519794 29.69027754 -22.21914443 25.24989553 -22.5 18.5 C-22.22696849 12.33972648 -20.85383593 7.69602011 -16.3046875 3.3984375 C-11.20828078 -0.29490988 -6.16782159 -1.14486321 0 0 Z " fill="#EFEFF2" transform="translate(296,308)"/>
<path d="M0 0 C13.53 0 27.06 0 41 0 C41 3.96 41 7.92 41 12 C27.47 12 13.94 12 0 12 C0 8.04 0 4.08 0 0 Z " fill="#050334" transform="translate(266,270)"/>
<path d="M0 0 C13.53 0 27.06 0 41 0 C41 3.96 41 7.92 41 12 C27.47 12 13.94 12 0 12 C0 8.04 0 4.08 0 0 Z " fill="#050334" transform="translate(208,270)"/>
<path d="M0 0 C3.05774024 2.4944723 4.81888212 4.41651221 5.2734375 8.390625 C5.58197419 17.07711946 5.58197419 17.07711946 3.0625 20.6875 C-0.51922758 23.39206981 -2.45460156 23.67654039 -6.81640625 23.69921875 C-10.14363534 22.63379119 -11.20536121 20.94861939 -13 18 C-13.92612827 12.80405956 -14.46158838 6.72175646 -11.89453125 1.94140625 C-8.13664362 -1.61498607 -4.67781089 -1.47264417 0 0 Z " fill="#0C0A39" transform="translate(218,315)"/>
<path d="M0 0 C8.91 0 17.82 0 27 0 C27 1.65 27 3.3 27 5 C23.7 5 20.4 5 17 5 C17 14.9 17 24.8 17 35 C14.69 35 12.38 35 10 35 C10 25.43 10 15.86 10 6 C6.7 6 3.4 6 0 6 C0 4.02 0 2.04 0 0 Z " fill="#F5F5F7" transform="translate(166,309)"/>
<path d="M0 0 C0.66 0 1.32 0 2 0 C2.33 1.65 2.66 3.3 3 5 C3.66 5 4.32 5 5 5 C5.33 3.35 5.66 1.7 6 0 C6.99 0 7.98 0 9 0 C9.66 1.32 10.32 2.64 11 4 C11.33 2.68 11.66 1.36 12 0 C12.99 0 13.98 0 15 0 C14.34 3.96 13.68 7.92 13 12 C11.68 12 10.36 12 9 12 C8.34 10.35 7.68 8.7 7 7 C6.67 8.65 6.34 10.3 6 12 C4.68 12 3.36 12 2 12 C1.34 8.04 0.68 4.08 0 0 Z " fill="#ECECF0" transform="translate(249,368)"/>
<path d="M0 0 C1.32 0 2.64 0 4 0 C4 4.29 4 8.58 4 13 C3.01 13 2.02 13 1 13 C0.67 11.68 0.34 10.36 0 9 C-0.66 10.32 -1.32 11.64 -2 13 C-2.66 13 -3.32 13 -4 13 C-4.66 11.35 -5.32 9.7 -6 8 C-6.33 9.65 -6.66 11.3 -7 13 C-7.66 13 -8.32 13 -9 13 C-9 9.04 -9 5.08 -9 1 C-7.68 1 -6.36 1 -5 1 C-4.34 2.98 -3.68 4.96 -3 7 C-2.01 4.69 -1.02 2.38 0 0 Z " fill="#F8F8F9" transform="translate(379,367)"/>
<path d="M0 0 C1.32 0 2.64 0 4 0 C4.66 1.65 5.32 3.3 6 5 C8.2236068 3.0745356 8.2236068 3.0745356 9 0 C10.32 0 11.64 0 13 0 C13 3.96 13 7.92 13 12 C12.01 12 11.02 12 10 12 C9.67 11.01 9.34 10.02 9 9 C8.67 9.99 8.34 10.98 8 12 C7.01 12 6.02 12 5 12 C4.34 10.02 3.68 8.04 3 6 C2.67 7.98 2.34 9.96 2 12 C1.34 12 0.68 12 0 12 C0 8.04 0 4.08 0 0 Z " fill="#D9D9E0" transform="translate(112,368)"/>
<path d="M0 0 C1.258125 -0.04125 2.51625 -0.0825 3.8125 -0.125 C4.52019531 -0.14820313 5.22789062 -0.17140625 5.95703125 -0.1953125 C8 0 8 0 11 2 C11.375 5 11.375 5 11 8 C7.91111478 10.05925681 7.29064073 10.2390374 3.8125 10.125 C1.9253125 10.063125 1.9253125 10.063125 0 10 C0 6.7 0 3.4 0 0 Z " fill="#141240" transform="translate(352,314)"/>
<path d="M0 0 C4 1 4 1 5.75 3.5625 C6.1625 4.366875 6.575 5.17125 7 6 C7.33 4.02 7.66 2.04 8 0 C8.99 0 9.98 0 11 0 C11 4.29 11 8.58 11 13 C7 12 7 12 5.25 9.4375 C4.8375 8.633125 4.425 7.82875 4 7 C3.67 8.98 3.34 10.96 3 13 C2.01 13 1.02 13 0 13 C0 8.71 0 4.42 0 0 Z " fill="#CACAD4" transform="translate(329,367)"/>
<path d="M0 0 C3.375 -0.125 3.375 -0.125 7 0 C9 2 9 2 9.0625 5.375 C9.041875 6.57125 9.02125 7.7675 9 9 C9.42854995 11.31036915 9.42854995 11.31036915 10 13 C8.68 12.67 7.36 12.34 6 12 C6 10.68 6 9.36 6 8 C5.01 8 4.02 8 3 8 C3 9.65 3 11.3 3 13 C2.01 13 1.02 13 0 13 C0 8.71 0 4.42 0 0 Z " fill="#D2D2DA" transform="translate(290,367)"/>
<path d="M0 0 C0.99 0 1.98 0 3 0 C3 1.65 3 3.3 3 5 C4.65 5 6.3 5 8 5 C8 3.35 8 1.7 8 0 C8.99 0 9.98 0 11 0 C11 4.29 11 8.58 11 13 C10.01 13 9.02 13 8 13 C8 11.35 8 9.7 8 8 C6.35 8 4.7 8 3 8 C3 9.65 3 11.3 3 13 C2.01 13 1.02 13 0 13 C0 8.71 0 4.42 0 0 Z " fill="#C0C0CC" transform="translate(266,367)"/>
<path d="M0 0 C1.32 0 2.64 0 4 0 C5.75 2.5 5.75 2.5 7 5 C7.33 3.35 7.66 1.7 8 0 C8.66 0 9.32 0 10 0 C10 3.96 10 7.92 10 12 C6 10 6 10 4 7 C3.67 8.65 3.34 10.3 3 12 C2.01 12 1.02 12 0 12 C0 8.04 0 4.08 0 0 Z " fill="#DDDDE3" transform="translate(225,368)"/>
<path d="M0 0 C1.890625 0.2265625 1.890625 0.2265625 4 1 C5.046875 2.9609375 5.046875 2.9609375 5.75 5.375 C5.99234375 6.16648437 6.2346875 6.95796875 6.484375 7.7734375 C7 10 7 10 7 13 C6.01 12.67 5.02 12.34 4 12 C4 11.34 4 10.68 4 10 C2.35 10 0.7 10 -1 10 C-1.33 10.99 -1.66 11.98 -2 13 C-2.66 13 -3.32 13 -4 13 C-3.71517632 11.58194169 -3.42181856 10.16559621 -3.125 8.75 C-2.96257812 7.96109375 -2.80015625 7.1721875 -2.6328125 6.359375 C-2.00849925 4.03168856 -1.15161458 2.10968048 0 0 Z " fill="#E9E8ED" transform="translate(216,367)"/>
<path d="M0 0 C1.890625 0.2265625 1.890625 0.2265625 4 1 C5.046875 2.9609375 5.046875 2.9609375 5.75 5.375 C5.99234375 6.16648437 6.2346875 6.95796875 6.484375 7.7734375 C7 10 7 10 7 13 C6.01 12.67 5.02 12.34 4 12 C4 11.34 4 10.68 4 10 C2.35 10 0.7 10 -1 10 C-1.33 10.99 -1.66 11.98 -2 13 C-2.66 13 -3.32 13 -4 13 C-3.71517632 11.58194169 -3.42181856 10.16559621 -3.125 8.75 C-2.96257812 7.96109375 -2.80015625 7.1721875 -2.6328125 6.359375 C-2.00849925 4.03168856 -1.15161458 2.10968048 0 0 Z " fill="#E9E8ED" transform="translate(177,367)"/>
<path d="M0 0 C1.890625 0.2265625 1.890625 0.2265625 4 1 C5.046875 2.9609375 5.046875 2.9609375 5.75 5.375 C5.99234375 6.16648437 6.2346875 6.95796875 6.484375 7.7734375 C7 10 7 10 7 13 C6.01 12.67 5.02 12.34 4 12 C4 11.34 4 10.68 4 10 C2.35 10 0.7 10 -1 10 C-1.33 10.99 -1.66 11.98 -2 13 C-2.66 13 -3.32 13 -4 13 C-3.71517632 11.58194169 -3.42181856 10.16559621 -3.125 8.75 C-2.96257812 7.96109375 -2.80015625 7.1721875 -2.6328125 6.359375 C-2.00849925 4.03168856 -1.15161458 2.10968048 0 0 Z " fill="#E9E8ED" transform="translate(131,367)"/>
<path d="M0 0 C1.32 0 2.64 0 4 0 C5.32 3.96 6.64 7.92 8 12 C7.01 12 6.02 12 5 12 C4.67 11.34 4.34 10.68 4 10 C1.47266765 9.34444881 1.47266765 9.34444881 -1 9 C-1 9.99 -1 10.98 -1 12 C-1.99 12 -2.98 12 -4 12 C-3.52494322 10.18641846 -3.04483958 8.37415821 -2.5625 6.5625 C-2.29566406 5.55316406 -2.02882813 4.54382813 -1.75390625 3.50390625 C-1 1 -1 1 0 0 Z " fill="#E3E3E8" transform="translate(320,368)"/>
<path d="M0 0 C0.66 0 1.32 0 2 0 C2.67057887 1.7902061 3.3363469 3.58221489 4 5.375 C4.556875 6.87160156 4.556875 6.87160156 5.125 8.3984375 C6 11 6 11 6 13 C2.7 13 -0.6 13 -4 13 C-2.68 8.71 -1.36 4.42 0 0 Z " fill="#1A1845" transform="translate(322,317)"/>
<path d="M0 0 C2.64 0 5.28 0 8 0 C7.67 0.99 7.34 1.98 7 3 C5.68 2.67 4.36 2.34 3 2 C3 2.99 3 3.98 3 5 C4.32 4.67 5.64 4.34 7 4 C8.76462683 7.08809695 9 8.23312136 9 12 C8.34 12 7.68 12 7 12 C6.71125 11.360625 6.4225 10.72125 6.125 10.0625 C5.17176549 7.84793921 5.17176549 7.84793921 3 7 C3 8.65 3 10.3 3 12 C2.01 12 1.02 12 0 12 C0 8.04 0 4.08 0 0 Z " fill="#E5E5EA" transform="translate(186,368)"/>
<path d="M0 0 C2.64 0 5.28 0 8 0 C7.67 0.99 7.34 1.98 7 3 C5.68 2.67 4.36 2.34 3 2 C3 2.99 3 3.98 3 5 C4.32 4.67 5.64 4.34 7 4 C8.76462683 7.08809695 9 8.23312136 9 12 C8.34 12 7.68 12 7 12 C6.71125 11.360625 6.4225 10.72125 6.125 10.0625 C5.17176549 7.84793921 5.17176549 7.84793921 3 7 C3 8.65 3 10.3 3 12 C2.01 12 1.02 12 0 12 C0 8.04 0 4.08 0 0 Z " fill="#E5E5EA" transform="translate(140,368)"/>
<path d="M0 0 C3.125 0.375 3.125 0.375 6 1 C6 1.66 6 2.32 6 3 C4.02 3 2.04 3 0 3 C0 3.66 0 4.32 0 5 C0.78375 5.12375 1.5675 5.2475 2.375 5.375 C5 6 5 6 7 8 C6.46428571 11.53571429 6.46428571 11.53571429 5 13 C3.00041636 13.04080783 0.99954746 13.04254356 -1 13 C-1.33 12.01 -1.66 11.02 -2 10 C0.97 10.495 0.97 10.495 4 11 C4 10.01 4 9.02 4 8 C2.35 7.67 0.7 7.34 -1 7 C-1.625 4.625 -1.625 4.625 -2 2 C-1.34 1.34 -0.68 0.68 0 0 Z " fill="#E9E9ED" transform="translate(103,367)"/>
<path d="M0 0 C1.9453125 -0.29296875 1.9453125 -0.29296875 4.125 -0.1875 C5.40375 -0.125625 6.6825 -0.06375 8 0 C8.33 0.99 8.66 1.98 9 3 C6.69 3 4.38 3 2 3 C2 4.98 2 6.96 2 9 C5.465 8.505 5.465 8.505 9 8 C8.34 9.32 7.68 10.64 7 12 C1.6 12.36 1.6 12.36 -0.875 10.875 C-2.51151479 8.14747535 -2.32502803 6.12026907 -2 3 C-1.34 2.01 -0.68 1.02 0 0 Z " fill="#D5D4DD" transform="translate(163,368)"/>
<path d="M0 0 C2.64 0 5.28 0 8 0 C8 0.66 8 1.32 8 2 C6.35 2 4.7 2 3 2 C3 2.66 3 3.32 3 4 C4.32 4 5.64 4 7 4 C7 4.66 7 5.32 7 6 C5.35 6 3.7 6 2 6 C2 7.32 2 8.64 2 10 C3.98 10 5.96 10 8 10 C8 10.66 8 11.32 8 12 C5.36 12 2.72 12 0 12 C0 8.04 0 4.08 0 0 Z " fill="#E8E8ED" transform="translate(386,368)"/>
<path d="M0 0 C2.64 0 5.28 0 8 0 C8 0.66 8 1.32 8 2 C6.35 2 4.7 2 3 2 C3 2.66 3 3.32 3 4 C4.32 4 5.64 4 7 4 C7 4.66 7 5.32 7 6 C5.35 6 3.7 6 2 6 C2 7.32 2 8.64 2 10 C3.98 10 5.96 10 8 10 C8 10.66 8 11.32 8 12 C5.36 12 2.72 12 0 12 C0 8.04 0 4.08 0 0 Z " fill="#E8E8ED" transform="translate(302,368)"/>
<path d="M0 0 C2.64 0 5.28 0 8 0 C8 0.66 8 1.32 8 2 C6.02 2 4.04 2 2 2 C2 2.99 2 3.98 2 5 C3.65 5 5.3 5 7 5 C7 5.66 7 6.32 7 7 C5.35 7 3.7 7 2 7 C2 7.99 2 8.98 2 10 C3.98 10 5.96 10 8 10 C8 10.66 8 11.32 8 12 C5.36 12 2.72 12 0 12 C0 8.04 0 4.08 0 0 Z " fill="#EEEEF1" transform="translate(280,368)"/>
<path d="M0 0 C2.64 0 5.28 0 8 0 C8 0.66 8 1.32 8 2 C6.02 2 4.04 2 2 2 C2 2.99 2 3.98 2 5 C3.65 5 5.3 5 7 5 C7 5.66 7 6.32 7 7 C5.35 7 3.7 7 2 7 C2 7.99 2 8.98 2 10 C3.98 10 5.96 10 8 10 C8 10.66 8 11.32 8 12 C5.36 12 2.72 12 0 12 C0 8.04 0 4.08 0 0 Z " fill="#EEEEF1" transform="translate(198,368)"/>
<path d="M0 0 C1.32 0 2.64 0 4 0 C4 4.29 4 8.58 4 13 C3.01 13 2.02 13 1 13 C-2.225 6.765 -2.225 6.765 -1.0625 2.8125 C-0.711875 1.884375 -0.36125 0.95625 0 0 Z " fill="#CCCCD6" transform="translate(379,367)"/>
<path d="M0 0 C3.3 0 6.6 0 10 0 C10 0.66 10 1.32 10 2 C8.68 2 7.36 2 6 2 C6 5.3 6 8.6 6 12 C5.01 12 4.02 12 3 12 C3 8.7 3 5.4 3 2 C2.01 2 1.02 2 0 2 C0 1.34 0 0.68 0 0 Z " fill="#D8D7DF" transform="translate(353,368)"/>
<path d="M0 0 C3.3 0 6.6 0 10 0 C10 0.99 10 1.98 10 3 C8.68 3 7.36 3 6 3 C6 6.3 6 9.6 6 13 C5.34 13 4.68 13 4 13 C4 9.7 4 6.4 4 3 C2.68 3 1.36 3 0 3 C0 2.01 0 1.02 0 0 Z " fill="#D4D4DC" transform="translate(150,367)"/>
<path d="M0 0 C3 1 3 1 5 3 C5.66 2.01 6.32 1.02 7 0 C7.66 0 8.32 0 9 0 C7.5 6 7.5 6 6 12 C5.01 12 4.02 12 3 12 C2 8 1 4 0 0 Z " fill="#E4E4E9" transform="translate(238,368)"/>
<path d="M0 0 C0.99 0 1.98 0 3 0 C3.66 0.99 4.32 1.98 5 3 C5.66 2.01 6.32 1.02 7 0 C7.99 0.33 8.98 0.66 10 1 C9.2884375 2.051875 9.2884375 2.051875 8.5625 3.125 C6.91260143 6.16081337 6.39631536 8.59168786 6 12 C5.34 12 4.68 12 4 12 C3.566875 10.4221875 3.566875 10.4221875 3.125 8.8125 C2.22774807 5.77181289 1.23576581 2.91287656 0 0 Z " fill="#E9E9ED" transform="translate(342,368)"/>
<path d="M0 0 C0.99 0 1.98 0 3 0 C3 4.29 3 8.58 3 13 C2.01 13 1.02 13 0 13 C0 8.71 0 4.42 0 0 Z " fill="#CDCDD6" transform="translate(364,367)"/>
<path d="M0 0 C1.32 0 2.64 0 4 0 C4.33 2.31 4.66 4.62 5 7 C4.34 6.67 3.68 6.34 3 6 C2.67 7.98 2.34 9.96 2 12 C1.34 12 0.68 12 0 12 C0 8.04 0 4.08 0 0 Z " fill="#EEEDF1" transform="translate(112,368)"/>
<path d="M0 0 C0.99 0 1.98 0 3 0 C3 1.98 3 3.96 3 6 C4.32 6.33 5.64 6.66 7 7 C5.35 7 3.7 7 2 7 C2 8.98 2 10.96 2 13 C1.34 13 0.68 13 0 13 C0 8.71 0 4.42 0 0 Z " fill="#DFDFE5" transform="translate(266,367)"/>
<path d="M0 0 C1.32 0 2.64 0 4 0 C4.99 3.3 5.98 6.6 7 10 C5.68 9.67 4.36 9.34 3 9 C3 7.68 3 6.36 3 5 C2.01 4.67 1.02 4.34 0 4 C0 2.68 0 1.36 0 0 Z " fill="#9E9DB0" transform="translate(293,370)"/>
<path d="M0 0 C2.0625 0.4375 2.0625 0.4375 4 1 C4.625 3.375 4.625 3.375 5 6 C4.34 6.66 3.68 7.32 3 8 C2.01 8 1.02 8 0 8 C-0.38063221 5.6739143 -0.71269945 3.33944736 -1 1 C-0.67 0.67 -0.34 0.34 0 0 Z " fill="#A3A2B4" transform="translate(216,367)"/>
<path d="M0 0 C2.0625 0.4375 2.0625 0.4375 4 1 C4.625 3.375 4.625 3.375 5 6 C4.34 6.66 3.68 7.32 3 8 C2.01 8 1.02 8 0 8 C-0.38063221 5.6739143 -0.71269945 3.33944736 -1 1 C-0.67 0.67 -0.34 0.34 0 0 Z " fill="#A3A2B4" transform="translate(177,367)"/>
<path d="M0 0 C2.0625 0.4375 2.0625 0.4375 4 1 C4.625 3.375 4.625 3.375 5 6 C4.34 6.66 3.68 7.32 3 8 C2.01 8 1.02 8 0 8 C-0.38063221 5.6739143 -0.71269945 3.33944736 -1 1 C-0.67 0.67 -0.34 0.34 0 0 Z " fill="#A3A2B4" transform="translate(131,367)"/>
<path d="M0 0 C0.66 0 1.32 0 2 0 C3.35439668 2.70879335 3.06501451 5.00933268 3 8 C3.66 8 4.32 8 5 8 C5 9.32 5 10.64 5 12 C4.01 12 3.02 12 2 12 C1.34 8.04 0.68 4.08 0 0 Z " fill="#EDEDF0" transform="translate(249,368)"/>
<path d="M0 0 C0.66 0 1.32 0 2 0 C2 3.96 2 7.92 2 12 C0.68 11.34 -0.64 10.68 -2 10 C-2 9.34 -2 8.68 -2 8 C-1.34 8 -0.68 8 0 8 C0 5.36 0 2.72 0 0 Z " fill="#F6F6F7" transform="translate(233,368)"/>
<path d="M0 0 C0.99 0.99 1.98 1.98 3 3 C3.66 2.67 4.32 2.34 5 2 C5.66 4.31 6.32 6.62 7 9 C6.01 9 5.02 9 4 9 C3.34 7.35 2.68 5.7 2 4 C1.01 4 0.02 4 -1 4 C-0.67 2.68 -0.34 1.36 0 0 Z " fill="#A5A4B6" transform="translate(321,371)"/>
<path d="M0 0 C0.33 0 0.66 0 1 0 C1 3.96 1 7.92 1 12 C0.01 11.67 -0.98 11.34 -2 11 C-2.33 9.02 -2.66 7.04 -3 5 C-2.34 4.67 -1.68 4.34 -1 4 C-0.34786708 1.97536745 -0.34786708 1.97536745 0 0 Z " fill="#211F4A" transform="translate(301,368)"/>
<path d="M0 0 C1.093125 0.185625 2.18625 0.37125 3.3125 0.5625 C6.93624133 1.2578068 6.93624133 1.2578068 10 0 C9.34 1.32 8.68 2.64 8 4 C6.02 4 4.04 4 2 4 C1.34 2.68 0.68 1.36 0 0 Z " fill="#ECEBEF" transform="translate(162,376)"/>
<path d="M0 0 C2.0625 1.6875 2.0625 1.6875 4 4 C3.75 6.75 3.75 6.75 3 9 C2.34 9 1.68 9 1 9 C-1.125 2.25 -1.125 2.25 0 0 Z " fill="#E3E3E8" transform="translate(374,371)"/>
<path d="M0 0 C0.33 0.66 0.66 1.32 1 2 C1.99 2 2.98 2 4 2 C4 2.66 4 3.32 4 4 C2.68 4 1.36 4 0 4 C0 4.99 0 5.98 0 7 C-0.99 7 -1.98 7 -3 7 C-1.125 1.125 -1.125 1.125 0 0 Z " fill="#ECECF0" transform="translate(319,373)"/>
<path d="M0 0 C0.99 0 1.98 0 3 0 C2.67 2.64 2.34 5.28 2 8 C0.68 7.67 -0.64 7.34 -2 7 C-1.34 4.69 -0.68 2.38 0 0 Z " fill="#C4C3CF" transform="translate(261,368)"/>
<path d="M0 0 C2.62386487 3.06117568 3 3.73173127 3 8 C2.34 8 1.68 8 1 8 C0.71125 7.38125 0.4225 6.7625 0.125 6.125 C-0.93720042 3.86674235 -0.93720042 3.86674235 -3 2 C-2.01 1.34 -1.02 0.68 0 0 Z " fill="#E8E8EC" transform="translate(192,372)"/>
<path d="M0 0 C2.62386487 3.06117568 3 3.73173127 3 8 C2.34 8 1.68 8 1 8 C0.71125 7.38125 0.4225 6.7625 0.125 6.125 C-0.93720042 3.86674235 -0.93720042 3.86674235 -3 2 C-2.01 1.34 -1.02 0.68 0 0 Z " fill="#E8E8EC" transform="translate(146,372)"/>
<path d="M0 0 C0.33 0.66 0.66 1.32 1 2 C1.66 2.33 2.32 2.66 3 3 C2.34 5.31 1.68 7.62 1 10 C0.67 8.68 0.34 7.36 0 6 C-0.66 6 -1.32 6 -2 6 C-2 5.01 -2 4.02 -2 3 C-1.34 3 -0.68 3 0 3 C0 2.01 0 1.02 0 0 Z " fill="#B4B4C2" transform="translate(254,370)"/>
<path d="M0 0 C0.99 0 1.98 0 3 0 C3.625 2.8125 3.625 2.8125 4 6 C3.01 7.485 3.01 7.485 2 9 C2 7.35 2 5.7 2 4 C1.34 4 0.68 4 0 4 C0 2.68 0 1.36 0 0 Z " fill="#E3E3E8" transform="translate(255,368)"/>
<path d="M0 0 C2.97 0.495 2.97 0.495 6 1 C6 1.66 6 2.32 6 3 C3.36 3.33 0.72 3.66 -2 4 C-1.34 2.68 -0.68 1.36 0 0 Z " fill="#D3D2DB" transform="translate(103,367)"/>
<path d="M0 0 C0.625 1.875 0.625 1.875 1 4 C0.34 4.66 -0.32 5.32 -1 6 C-1.33 5.34 -1.66 4.68 -2 4 C-2.99 4 -3.98 4 -5 4 C-5 3.01 -5 2.02 -5 1 C-3.35 0.67 -1.7 0.34 0 0 Z " fill="#696885" transform="translate(194,369)"/>
<path d="M0 0 C0.625 1.875 0.625 1.875 1 4 C0.34 4.66 -0.32 5.32 -1 6 C-1.33 5.34 -1.66 4.68 -2 4 C-2.99 4 -3.98 4 -5 4 C-5 3.01 -5 2.02 -5 1 C-3.35 0.67 -1.7 0.34 0 0 Z " fill="#696885" transform="translate(148,369)"/>
<path d="M0 0 C0.33 0 0.66 0 1 0 C1 3.96 1 7.92 1 12 C0.01 11.67 -0.98 11.34 -2 11 C-1.34 7.37 -0.68 3.74 0 0 Z " fill="#FBFBFC" transform="translate(338,368)"/>
<path d="M0 0 C2.31 0 4.62 0 7 0 C6.67 0.99 6.34 1.98 6 3 C4.68 2.67 3.36 2.34 2 2 C1.67 2.99 1.34 3.98 1 5 C0.67 3.35 0.34 1.7 0 0 Z " fill="#DBDBE2" transform="translate(187,368)"/>
<path d="M0 0 C2.31 0 4.62 0 7 0 C6.67 0.99 6.34 1.98 6 3 C4.68 2.67 3.36 2.34 2 2 C1.67 2.99 1.34 3.98 1 5 C0.67 3.35 0.34 1.7 0 0 Z " fill="#DBDBE2" transform="translate(141,368)"/>
</svg>
